<svg width="24" height="16" viewBox="0 0 24 16" fill="none" xmlns="http://www.w3.org/2000/svg">
<path d="M22.8957 2.52373C22.7663 2.04276 22.5128 1.60423 22.1606 1.25203C21.8084 0.899828 21.3698 0.646312 20.8889 0.516851C19.1176 0.0374757 12.0001 0.0374756 12.0001 0.0374756C12.0001 0.0374756 4.88262 0.0374757 3.11137 0.516851C2.63041 0.646312 2.19188 0.899828 1.83968 1.25203C1.48748 1.60423 1.23396 2.04276 1.1045 2.52373C0.773766 4.33013 0.613271 6.16358 0.625123 7.99997C0.613271 9.83637 0.773766 11.6698 1.1045 13.4762C1.23396 13.9572 1.48748 14.3957 1.83968 14.7479C2.19188 15.1001 2.63041 15.3536 3.11137 15.4831C4.88262 15.9625 12.0001 15.9625 12.0001 15.9625C12.0001 15.9625 19.1176 15.9625 20.8889 15.4831C21.3698 15.3536 21.8084 15.1001 22.1606 14.7479C22.5128 14.3957 22.7663 13.9572 22.8957 13.4762C23.2265 11.6698 23.387 9.83637 23.3751 7.99997C23.387 6.16358 23.2265 4.33013 22.8957 2.52373ZM9.72512 11.4125V4.58747L15.632 7.99997L9.72512 11.4125Z" fill="#333333"/>
</svg>
